<svg width="37" height="38" viewBox="0 0 37 38" fill="none" xmlns="http://www.w3.org/2000/svg">
<path d="M23.125 3.58337C17.9185 3.58556 13.4564 7.30591 12.5179 12.4272C16.9995 9.97477 22.6205 11.6197 25.0729 16.1012C26.5869 18.8679 26.5869 22.2154 25.0729 24.9821C30.9332 23.9086 34.8137 18.2876 33.7402 12.4272C32.8014 7.30282 28.3347 3.5814 23.125 3.58337Z" fill="#E4AD78" fill-opacity="0.12"/>
<path d="M10.7916 34.4167C15.0488 34.4167 18.5 30.9655 18.5 26.7083C18.5 22.4511 15.0488 19 10.7916 19C6.53445 19 3.08331 22.4511 3.08331 26.7083C3.08331 30.9655 6.53445 34.4167 10.7916 34.4167Z" fill="#E4AD78"/>
<path d="M16.9583 11.2916C12.2048 11.2921 8.22539 14.8954 7.75458 19.6256C11.6639 17.946 16.1947 19.7535 17.8744 23.6629C18.7086 25.6046 18.7086 27.8037 17.8744 29.7454C22.9577 29.2399 26.6688 24.7093 26.1633 19.626C25.6929 14.895 21.7126 11.2912 16.9583 11.2916Z" fill="#E4AD78" fill-opacity="0.4"/>
</svg>
