<svg width="38" height="38" viewBox="0 0 38 38" fill="none" xmlns="http://www.w3.org/2000/svg">
<path d="M29.625 9.75H8.04163C5.48732 9.75 3.41663 11.8207 3.41663 14.375V18.5697L13.9576 22.0833H23.709L34.25 18.5697V14.375C34.25 11.8207 32.1793 9.75 29.625 9.75Z" fill="#E4AD78" fill-opacity="0.4"/>
<path d="M15.75 9.75V8.20833H21.9166V9.75H25V8.20833C24.998 6.50626 23.6187 5.12694 21.9166 5.125H15.75C14.0479 5.12694 12.6686 6.50626 12.6666 8.20833V9.75H15.75ZM13.9576 22.0833L3.41663 18.5696V28.25C3.41942 30.8032 5.48846 32.8722 8.04163 32.875H29.625C32.1781 32.8722 34.2472 30.8032 34.25 28.25V18.5696L23.709 22.0833H13.9576Z" fill="#E4AD78"/>
</svg>
