<svg width="38" height="37" viewBox="0 0 38 37" fill="none" xmlns="http://www.w3.org/2000/svg">
<path d="M21.4791 13.875C20.202 13.875 19.1666 12.8397 19.1666 11.5625C19.1666 10.2853 20.202 9.25 21.4791 9.25C22.7563 9.25 23.7916 10.2853 23.7916 11.5625C23.7902 12.8391 22.7557 13.8736 21.4791 13.875Z" fill="#E4AD78" fill-opacity="0.12"/>
<path d="M29.9583 3.08337H8.37494C5.82371 3.09082 3.75739 5.15715 3.74994 7.70837V21.3675L9.73161 15.3859C11.5623 13.6438 14.4376 13.6438 16.2683 15.3859L20.695 19.8367L22.0633 18.4684C23.8723 16.6699 26.7942 16.6699 28.6033 18.4684L34.5833 24.4484V7.70837C34.5758 5.15715 32.5095 3.09082 29.9583 3.08337ZM21.4791 13.875C20.2019 13.875 19.1666 12.8397 19.1666 11.5625C19.1666 10.2854 20.2019 9.25004 21.4791 9.25004C22.7563 9.25004 23.7916 10.2854 23.7916 11.5625C23.7902 12.8391 22.7557 13.8737 21.4791 13.875Z" fill="#E4AD78" fill-opacity="0.4"/>
<path d="M16.2683 15.3858C14.4376 13.6437 11.5623 13.6437 9.73161 15.3858L3.74994 21.3675V29.2916C3.7574 31.8428 5.82373 33.9092 8.37494 33.9166H29.9583C31.2149 33.9161 32.4172 33.404 33.2883 32.4983L16.2683 15.3858Z" fill="#E4AD78"/>
<path d="M34.5833 24.4484L28.6033 18.4684C26.7942 16.6699 23.8723 16.6699 22.0633 18.4684L20.695 19.8366L33.2816 32.4915C34.1173 31.6362 34.5847 30.4875 34.5833 29.2917V24.4484Z" fill="#E4AD78" fill-opacity="0.12"/>
</svg>
