<svg width="38" height="37" viewBox="0 0 38 37" fill="none" xmlns="http://www.w3.org/2000/svg">
<path d="M6.49996 24.6667C4.79708 24.6667 3.41663 23.2863 3.41663 21.5834C3.41663 19.8805 4.79708 18.5 6.49996 18.5C8.20284 18.5 9.58329 19.8805 9.58329 21.5834C9.58109 23.2853 8.20193 24.6645 6.49996 24.6667ZM6.49996 9.25004C4.79708 9.25004 3.41663 7.86959 3.41663 6.16671C3.41663 4.46383 4.79708 3.08337 6.49996 3.08337C8.20284 3.08337 9.58329 4.46383 9.58329 6.16671C9.58109 7.86868 8.20193 9.24784 6.49996 9.25004ZM21.9166 9.25004C20.2137 9.25004 18.8333 7.86959 18.8333 6.16671C18.8333 4.46383 20.2137 3.08337 21.9166 3.08337C23.6195 3.08337 25 4.46383 25 6.16671C24.9978 7.86868 23.6186 9.24784 21.9166 9.25004ZM21.9166 24.6667C20.2137 24.6667 18.8333 23.2863 18.8333 21.5834C18.8333 19.8805 20.2137 18.5 21.9166 18.5C23.6195 18.5 25 19.8805 25 21.5834C24.9978 23.2853 23.6186 24.6645 21.9166 24.6667Z" fill="#E4AD78" fill-opacity="0.6"/>
<path d="M15.75 33.9167C14.0471 33.9167 12.6666 32.5363 12.6666 30.8334C12.6666 29.1305 14.0471 27.75 15.75 27.75C17.4528 27.75 18.8333 29.1305 18.8333 30.8334C18.8311 32.5353 17.4519 33.9145 15.75 33.9167ZM15.75 18.5C14.0471 18.5 12.6666 17.1196 12.6666 15.4167C12.6666 13.7138 14.0471 12.3334 15.75 12.3334C17.4528 12.3334 18.8333 13.7138 18.8333 15.4167C18.8311 17.1187 17.4519 18.4978 15.75 18.5ZM31.1666 18.5C29.4637 18.5 28.0833 17.1196 28.0833 15.4167C28.0833 13.7138 29.4637 12.3334 31.1666 12.3334C32.8695 12.3334 34.25 13.7138 34.25 15.4167C34.2478 17.1187 32.8686 18.4978 31.1666 18.5ZM31.1666 33.9167C29.4637 33.9167 28.0833 32.5363 28.0833 30.8334C28.0833 29.1305 29.4637 27.75 31.1666 27.75C32.8695 27.75 34.25 29.1305 34.25 30.8334C34.2478 32.5353 32.8686 33.9145 31.1666 33.9167Z" fill="#E4AD78"/>
<path d="M19.2623 7.70833C18.6902 6.76016 18.6902 5.57317 19.2623 4.625H9.15418C9.72627 5.57317 9.72627 6.76016 9.15418 7.70833H19.2623ZM6.49992 18.5C7.04286 18.5031 7.57511 18.6512 8.04159 18.9291V8.82092C7.09341 9.39302 5.90642 9.39302 4.95825 8.82092V18.9291C5.42473 18.6512 5.95697 18.5031 6.49992 18.5Z" fill="#E4AD78" fill-opacity="0.12"/>
<path d="M31.1666 27.75C31.7095 27.7531 32.2418 27.9012 32.7083 28.1791V18.0709C31.7601 18.643 30.5731 18.643 29.6249 18.0709V28.1791C30.0914 27.9012 30.6236 27.7531 31.1666 27.75ZM15.7499 27.75C16.2929 27.7531 16.8251 27.9012 17.2916 28.1791V18.0709C16.3434 18.643 15.1564 18.643 14.2083 18.0709V28.1791C14.6747 27.9012 15.207 27.7531 15.7499 27.75Z" fill="#E4AD78" fill-opacity="0.6"/>
<path d="M19.2623 20.0416H17.2916V23.125H19.2623C18.6902 22.1768 18.6902 20.9898 19.2623 20.0416ZM14.2083 23.125V20.0416H9.15417C9.72627 20.9898 9.72627 22.1768 9.15417 23.125H14.2083Z" fill="#E4AD78" fill-opacity="0.12"/>
<path d="M28.5123 29.2917H18.4042C18.9763 30.2398 18.9763 31.4268 18.4042 32.375H28.5123C27.9402 31.4268 27.9402 30.2398 28.5123 29.2917ZM28.5123 16.9583C27.9402 16.0102 27.9402 14.8232 28.5123 13.875H18.4042C18.9763 14.8232 18.9763 16.0102 18.4042 16.9583H28.5123Z" fill="#E4AD78" fill-opacity="0.6"/>
<path d="M23.4582 13.875V8.82092C22.51 9.39302 21.323 9.39302 20.3749 8.82092V13.875H23.4582ZM20.3749 16.9583V18.9291C21.323 18.357 22.51 18.357 23.4582 18.9291V16.9583H20.3749Z" fill="#E4AD78" fill-opacity="0.12"/>
</svg>
