<svg width="37" height="37" viewBox="0 0 37 37" fill="none" xmlns="http://www.w3.org/2000/svg">
<path d="M9.24996 25.4375C8.18277 25.4375 7.13954 25.1211 6.2522 24.5282C5.36486 23.9353 4.67326 23.0926 4.26486 22.1066C3.85646 21.1206 3.74961 20.0357 3.95781 18.989C4.16601 17.9423 4.67991 16.9809 5.43453 16.2263C6.18915 15.4717 7.1506 14.9578 8.19729 14.7496C9.24398 14.5414 10.3289 14.6482 11.3149 15.0566C12.3008 15.465 13.1435 16.1566 13.7364 17.0439C14.3293 17.9313 14.6458 18.9745 14.6458 20.0417C14.6441 21.4722 14.075 22.8437 13.0635 23.8552C12.0519 24.8668 10.6805 25.4358 9.24996 25.4375Z" fill="#E4AD78" fill-opacity="0.4"/>
<path d="M13.3204 23.5441C12.8208 24.1372 12.1977 24.6139 11.4946 24.941C10.7915 25.2681 10.0254 25.4375 9.24996 25.4375C8.47451 25.4375 7.70843 25.2681 7.00533 24.941C6.30224 24.6139 5.67911 24.1372 5.17956 23.5441C4.06954 24.2323 3.15309 25.1918 2.51661 26.3323C1.88012 27.4727 1.54458 28.7565 1.54163 30.0625C1.54163 30.4714 1.70405 30.8636 1.99317 31.1527C2.28229 31.4418 2.67442 31.6042 3.08329 31.6042H15.4166C15.8255 31.6042 16.2176 31.4418 16.5067 31.1527C16.7959 30.8636 16.9583 30.4714 16.9583 30.0625C16.9553 28.7565 16.6198 27.4727 15.9833 26.3323C15.3468 25.1918 14.4304 24.2323 13.3204 23.5441V23.5441ZM27.75 25.4375C26.6828 25.4375 25.6395 25.1211 24.7522 24.5282C23.8649 23.9353 23.1733 23.0926 22.7649 22.1066C22.3565 21.1206 22.2496 20.0357 22.4578 18.989C22.666 17.9423 23.1799 16.9809 23.9345 16.2263C24.6891 15.4717 25.6506 14.9578 26.6973 14.7496C27.744 14.5414 28.8289 14.6482 29.8149 15.0566C30.8008 15.465 31.6435 16.1566 32.2364 17.0439C32.8293 17.9313 33.1458 18.9745 33.1458 20.0417C33.1441 21.4722 32.575 22.8437 31.5635 23.8552C30.5519 24.8668 29.1805 25.4358 27.75 25.4375Z" fill="#E4AD78" fill-opacity="0.6"/>
<path d="M31.8204 23.5441C31.3208 24.1372 30.6977 24.6139 29.9946 24.941C29.2915 25.2681 28.5254 25.4375 27.75 25.4375C26.9745 25.4375 26.2084 25.2681 25.5053 24.941C24.8022 24.6139 24.1791 24.1372 23.6796 23.5441C22.5695 24.2323 21.6531 25.1918 21.0166 26.3323C20.3801 27.4727 20.0446 28.7565 20.0416 30.0626C20.0416 30.4714 20.2041 30.8636 20.4932 31.1527C20.7823 31.4418 21.1744 31.6042 21.5833 31.6042H33.9166C34.3255 31.6042 34.7176 31.4418 35.0067 31.1527C35.2959 30.8636 35.4583 30.4714 35.4583 30.0626C35.4553 28.7565 35.1198 27.4727 34.4833 26.3323C33.8468 25.1918 32.9304 24.2323 31.8204 23.5441V23.5441Z" fill="#E4AD78" fill-opacity="0.8"/>
<path d="M26.5275 8.93085L23.4441 5.84751C23.1542 5.56275 22.7635 5.40402 22.3571 5.40586C21.9507 5.4077 21.5614 5.56996 21.274 5.85734C20.9867 6.14472 20.8244 6.53395 20.8226 6.94036C20.8207 7.34677 20.9794 7.73746 21.2642 8.02743L21.7159 8.47914H15.2842L15.7359 8.02743C16.022 7.73772 16.1818 7.34659 16.1805 6.93945C16.1792 6.5323 16.0169 6.1422 15.729 5.8543C15.4411 5.56641 15.051 5.40411 14.6438 5.40284C14.2367 5.40157 13.8456 5.56142 13.5559 5.84751L10.4725 8.93085C10.3294 9.07396 10.2158 9.24388 10.1383 9.43091C10.0608 9.61794 10.0209 9.8184 10.0209 10.0208C10.0209 10.2233 10.0608 10.4238 10.1383 10.6108C10.2158 10.7978 10.3294 10.9677 10.4725 11.1109L13.5559 14.1942C13.8456 14.4803 14.2367 14.6401 14.6439 14.6388C15.051 14.6375 15.4411 14.4752 15.729 14.1873C16.0169 13.8994 16.1792 13.5093 16.1805 13.1021C16.1817 12.695 16.0219 12.3039 15.7358 12.0142L15.2841 11.5625H21.7157L21.264 12.0142C20.9749 12.3033 20.8126 12.6954 20.8126 13.1042C20.8126 13.513 20.975 13.9051 21.2641 14.1942C21.5532 14.4833 21.9453 14.6457 22.3541 14.6456C22.763 14.6456 23.1551 14.4832 23.4441 14.1941L26.5275 11.1108C26.6706 10.9676 26.7842 10.7977 26.8617 10.6107C26.9392 10.4237 26.9791 10.2232 26.9791 10.0208C26.9791 9.81837 26.9392 9.61791 26.8617 9.43089C26.7842 9.24388 26.6706 9.07396 26.5275 8.93085V8.93085Z" fill="#E4AD78"/>
</svg>
