<svg width="25" height="24" viewBox="0 0 25 24" fill="none" xmlns="http://www.w3.org/2000/svg">
<path d="M17.84 5.46C17.6027 5.46 17.3707 5.53038 17.1733 5.66224C16.976 5.79409 16.8222 5.98151 16.7313 6.20078C16.6405 6.42005 16.6168 6.66133 16.6631 6.89411C16.7094 7.12689 16.8236 7.34071 16.9915 7.50853C17.1593 7.67635 17.3731 7.79064 17.6059 7.83694C17.8387 7.88324 18.0799 7.85948 18.2992 7.76866C18.5185 7.67783 18.7059 7.52402 18.8378 7.32668C18.9696 7.12935 19.04 6.89734 19.04 6.66C19.04 6.34174 18.9136 6.03652 18.6885 5.81147C18.4635 5.58643 18.1583 5.46 17.84 5.46ZM22.44 7.88C22.4206 7.0503 22.2652 6.2294 21.98 5.45C21.7257 4.78313 21.33 4.17928 20.82 3.68C20.3248 3.16743 19.7196 2.77418 19.05 2.53C18.2727 2.23616 17.4508 2.07721 16.62 2.06C15.56 2 15.22 2 12.5 2C9.78 2 9.44 2 8.38 2.06C7.54915 2.07721 6.72734 2.23616 5.95 2.53C5.28168 2.77665 4.67693 3.16956 4.18 3.68C3.66743 4.17518 3.27418 4.78044 3.03 5.45C2.73616 6.22734 2.57721 7.04915 2.56 7.88C2.5 8.94 2.5 9.28 2.5 12C2.5 14.72 2.5 15.06 2.56 16.12C2.57721 16.9508 2.73616 17.7727 3.03 18.55C3.27418 19.2196 3.66743 19.8248 4.18 20.32C4.67693 20.8304 5.28168 21.2234 5.95 21.47C6.72734 21.7638 7.54915 21.9228 8.38 21.94C9.44 22 9.78 22 12.5 22C15.22 22 15.56 22 16.62 21.94C17.4508 21.9228 18.2727 21.7638 19.05 21.47C19.7196 21.2258 20.3248 20.8326 20.82 20.32C21.3322 19.8226 21.7283 19.2182 21.98 18.55C22.2652 17.7706 22.4206 16.9497 22.44 16.12C22.44 15.06 22.5 14.72 22.5 12C22.5 9.28 22.5 8.94 22.44 7.88ZM20.64 16C20.6327 16.6348 20.5178 17.2637 20.3 17.86C20.1403 18.2952 19.8839 18.6884 19.55 19.01C19.2256 19.3405 18.8332 19.5964 18.4 19.76C17.8037 19.9778 17.1748 20.0927 16.54 20.1C15.54 20.15 15.17 20.16 12.54 20.16C9.91 20.16 9.54 20.16 8.54 20.1C7.88089 20.1123 7.22459 20.0109 6.6 19.8C6.18578 19.6281 5.81136 19.3728 5.5 19.05C5.16809 18.7287 4.91484 18.3352 4.76 17.9C4.51586 17.2952 4.38044 16.6519 4.36 16C4.36 15 4.3 14.63 4.3 12C4.3 9.37 4.3 9 4.36 8C4.36448 7.35106 4.48295 6.70795 4.71 6.1C4.88605 5.67791 5.15627 5.30166 5.5 5C5.80381 4.65617 6.17929 4.3831 6.6 4.2C7.20955 3.98004 7.852 3.86508 8.5 3.86C9.5 3.86 9.87 3.8 12.5 3.8C15.13 3.8 15.5 3.8 16.5 3.86C17.1348 3.86728 17.7637 3.98225 18.36 4.2C18.8144 4.36865 19.2223 4.64285 19.55 5C19.8777 5.30718 20.1338 5.68273 20.3 6.1C20.5223 6.70893 20.6373 7.35178 20.64 8C20.69 9 20.7 9.37 20.7 12C20.7 14.63 20.69 15 20.64 16ZM12.5 6.87C11.4858 6.87198 10.495 7.17453 9.65265 7.73942C8.81035 8.30431 8.15438 9.1062 7.76763 10.0438C7.38089 10.9813 7.28072 12.0125 7.47979 13.0069C7.67886 14.0014 8.16824 14.9145 8.88608 15.631C9.60392 16.3474 10.518 16.835 11.5129 17.0321C12.5077 17.2293 13.5387 17.1271 14.4755 16.7385C15.4123 16.35 16.2129 15.6924 16.7761 14.849C17.3394 14.0056 17.64 13.0142 17.64 12C17.6413 11.3251 17.5092 10.6566 17.2512 10.033C16.9933 9.40931 16.6146 8.84281 16.1369 8.36605C15.6592 7.88929 15.0919 7.51168 14.4678 7.25493C13.8436 6.99818 13.1749 6.86736 12.5 6.87ZM12.5 15.33C11.8414 15.33 11.1976 15.1347 10.65 14.7688C10.1023 14.4029 9.67552 13.8828 9.42348 13.2743C9.17144 12.6659 9.1055 11.9963 9.23398 11.3503C9.36247 10.7044 9.67963 10.111 10.1453 9.64533C10.611 9.17963 11.2044 8.86247 11.8503 8.73398C12.4963 8.6055 13.1659 8.67144 13.7743 8.92348C14.3828 9.17552 14.9029 9.60234 15.2688 10.15C15.6347 10.6976 15.83 11.3414 15.83 12C15.83 12.4373 15.7439 12.8703 15.5765 13.2743C15.4092 13.6784 15.1639 14.0454 14.8547 14.3547C14.5454 14.6639 14.1784 14.9092 13.7743 15.0765C13.3703 15.2439 12.9373 15.33 12.5 15.33Z" fill="#E4AD78"/>
</svg>
