<svg width="25" height="24" viewBox="0 0 25 24" fill="none" xmlns="http://www.w3.org/2000/svg">
<path d="M20.97 2.00014H4.03C3.83958 1.9975 3.6505 2.03239 3.47356 2.10282C3.29663 2.17326 3.1353 2.27786 2.9988 2.41065C2.86229 2.54344 2.75328 2.70182 2.67799 2.87675C2.6027 3.05167 2.56261 3.23972 2.56 3.43014V20.5701C2.56261 20.7606 2.6027 20.9486 2.67799 21.1235C2.75328 21.2985 2.86229 21.4568 2.9988 21.5896C3.1353 21.7224 3.29663 21.827 3.47356 21.8975C3.6505 21.9679 3.83958 22.0028 4.03 22.0001H20.97C21.1604 22.0028 21.3495 21.9679 21.5264 21.8975C21.7034 21.827 21.8647 21.7224 22.0012 21.5896C22.1377 21.4568 22.2467 21.2985 22.322 21.1235C22.3973 20.9486 22.4374 20.7606 22.44 20.5701V3.43014C22.4374 3.23972 22.3973 3.05167 22.322 2.87675C22.2467 2.70182 22.1377 2.54344 22.0012 2.41065C21.8647 2.27786 21.7034 2.17326 21.5264 2.10282C21.3495 2.03239 21.1604 1.9975 20.97 2.00014ZM8.59 18.7401H5.59V9.74014H8.59V18.7401ZM7.09 8.48014C6.67626 8.48014 6.27947 8.31578 5.98691 8.02323C5.69435 7.73067 5.53 7.33388 5.53 6.92014C5.53 6.5064 5.69435 6.10961 5.98691 5.81705C6.27947 5.5245 6.67626 5.36014 7.09 5.36014C7.30969 5.33522 7.53217 5.35699 7.74287 5.42402C7.95357 5.49105 8.14774 5.60183 8.31265 5.7491C8.47757 5.89637 8.60952 6.07682 8.69987 6.27862C8.79021 6.48043 8.83692 6.69904 8.83692 6.92014C8.83692 7.14124 8.79021 7.35985 8.69987 7.56166C8.60952 7.76346 8.47757 7.94391 8.31265 8.09118C8.14774 8.23845 7.95357 8.34923 7.74287 8.41626C7.53217 8.48329 7.30969 8.50505 7.09 8.48014ZM19.41 18.7401H16.41V13.9101C16.41 12.7001 15.98 11.9101 14.89 11.9101C14.5527 11.9126 14.2242 12.0184 13.9488 12.2133C13.6735 12.4082 13.4645 12.6828 13.35 13.0001C13.2717 13.2352 13.2378 13.4827 13.25 13.7301V18.7301H10.25C10.25 18.7301 10.25 10.5501 10.25 9.73014H13.25V11.0001C13.5225 10.5272 13.9189 10.1377 14.3964 9.87334C14.874 9.60902 15.4146 9.47999 15.96 9.50014C17.96 9.50014 19.41 10.7901 19.41 13.5601V18.7401Z" fill="#E4AD78"/>
</svg>
