<svg width="32" height="32" viewBox="0 0 32 32" fill="none" xmlns="http://www.w3.org/2000/svg">
<path d="M17.5 0.70625C17.2375 0.7875 5.98125 6.33125 5.85 6.45C5.8125 6.475 6.15625 6.5 6.60625 6.5H7.425L13.7625 4.775C17.2438 3.825 20.1188 3.025 20.15 3C20.175 2.975 20.0313 2.6 19.8188 2.16875C19.4063 1.33125 19.15 1.025 18.6625 0.8125C18.3063 0.65 17.8375 0.6125 17.5 0.70625Z" fill="url(#paint0_linear_210_110)"/>
<path d="M17.8437 4.775C14.5437 5.675 11.8 6.43125 11.75 6.45625C11.7 6.475 14.9937 6.49375 19.075 6.49375L26.4875 6.5L26.3062 5.825C26.2062 5.45625 26.0625 4.9375 25.9937 4.675C25.7187 3.65625 25.0812 3.11875 24.1562 3.13125C23.95 3.13125 21.825 3.68125 17.8437 4.775Z" fill="url(#paint1_linear_210_110)"/>
<path d="M1.22499 7.85C1.00624 7.91875 0.818743 8.05 0.556243 8.30625C-0.0562571 8.91875 -0.00625711 7.86875 0.0124929 19.6875L0.0312429 30.0312L0.174993 30.3125C0.381243 30.7062 0.712493 31.0312 1.08749 31.2L1.40624 31.3438H15.0937C27.95 31.3438 28.7937 31.3375 29.0187 31.2375C29.4375 31.05 29.7312 30.7625 29.9312 30.3625L30.125 29.9812V27.275V24.5687L24.5187 24.55L18.9062 24.5312L18.5375 24.3875C17.4937 23.9937 16.8 23.2375 16.5375 22.2125C16.4562 21.8937 16.4375 21.425 16.4375 19.5875C16.4375 18.35 16.4687 17.175 16.5 16.9687C16.6375 16.125 17.2812 15.2375 18.05 14.825C18.7875 14.4312 18.6687 14.4375 24.675 14.4375H30.1312L30.1125 11.7L30.0937 8.96875L29.925 8.6875C29.7187 8.3375 29.4875 8.1125 29.125 7.925L28.8437 7.78125L15.1875 7.76875C3.16249 7.7625 1.49374 7.76875 1.22499 7.85Z" fill="url(#paint2_linear_210_110)"/>
<path d="M19.0312 15.775C18.5062 15.925 18.1312 16.2375 17.8625 16.75C17.7187 17.0313 17.7187 17.0375 17.7187 19.4688C17.7187 21.9 17.7187 21.9063 17.8687 22.2313C18.0375 22.6125 18.3937 22.9563 18.8062 23.15C19.0937 23.2812 19.1 23.2812 24.8437 23.2812C30.5875 23.2812 30.5937 23.2812 30.8812 23.15C31.275 22.9688 31.6312 22.6313 31.8125 22.2688L31.9687 21.9688L31.9875 19.6375C32.0125 16.8375 32.0062 16.8063 31.45 16.2563C30.8375 15.65 31.275 15.6875 24.85 15.6938C20.8437 15.7 19.2125 15.7188 19.0312 15.775ZM22.8187 18.5188C23.1312 18.725 23.25 19.0125 23.25 19.55C23.25 20.3875 22.9687 20.7 22.1937 20.7438C21.6312 20.7688 21.3312 20.6875 21.0937 20.4375C20.9187 20.2563 20.9062 20.2063 20.8875 19.65C20.8562 18.95 20.925 18.7438 21.2437 18.525C21.4375 18.3938 21.5375 18.375 22.0375 18.375C22.525 18.375 22.6375 18.3938 22.8187 18.5188Z" fill="url(#paint3_linear_210_110)"/>
<defs>
<linearGradient id="paint0_linear_210_110" x1="5.8472" y1="3.50993" x2="20.1528" y2="3.50993" gradientUnits="userSpaceOnUse">
<stop stop-color="#E49547"/>
<stop offset="1" stop-color="#FFB977"/>
</linearGradient>
<linearGradient id="paint1_linear_210_110" x1="11.7494" y1="4.77635" x2="26.4875" y2="4.77635" gradientUnits="userSpaceOnUse">
<stop stop-color="#E49547"/>
<stop offset="1" stop-color="#FFB977"/>
</linearGradient>
<linearGradient id="paint2_linear_210_110" x1="0.00296005" y1="19.2813" x2="30.1312" y2="19.2813" gradientUnits="userSpaceOnUse">
<stop stop-color="#E49547"/>
<stop offset="1" stop-color="#FFB977"/>
</linearGradient>
<linearGradient id="paint3_linear_210_110" x1="17.7187" y1="19.3979" x2="31.995" y2="19.3979" gradientUnits="userSpaceOnUse">
<stop stop-color="#E49547"/>
<stop offset="1" stop-color="#FFB977"/>
</linearGradient>
</defs>
</svg>
