<svg width="132" height="71" viewBox="0 0 132 71" fill="none" xmlns="http://www.w3.org/2000/svg">
<path d="M47.848 24.7C49.544 24.7 50.968 25.252 52.12 26.356C53.272 27.46 53.848 28.868 53.848 30.58C53.848 32.292 53.272 33.7 52.12 34.804C50.968 35.908 49.544 36.46 47.848 36.46H45.616V41.5H41.32V24.7H47.848ZM47.848 32.38C48.328 32.38 48.728 32.212 49.048 31.876C49.384 31.54 49.552 31.108 49.552 30.58C49.552 30.052 49.384 29.628 49.048 29.308C48.728 28.972 48.328 28.804 47.848 28.804H45.616V32.38H47.848ZM63.3115 29.5H67.2955V41.5H63.3115V40.396C62.4955 41.356 61.3595 41.836 59.9035 41.836C58.3035 41.836 56.9595 41.236 55.8715 40.036C54.7995 38.82 54.2635 37.308 54.2635 35.5C54.2635 33.692 54.7995 32.188 55.8715 30.988C56.9595 29.772 58.3035 29.164 59.9035 29.164C61.3595 29.164 62.4955 29.644 63.3115 30.604V29.5ZM58.9675 37.396C59.4315 37.876 60.0395 38.116 60.7915 38.116C61.5435 38.116 62.1515 37.876 62.6155 37.396C63.0795 36.916 63.3115 36.284 63.3115 35.5C63.3115 34.716 63.0795 34.084 62.6155 33.604C62.1515 33.124 61.5435 32.884 60.7915 32.884C60.0395 32.884 59.4315 33.124 58.9675 33.604C58.5035 34.084 58.2715 34.716 58.2715 35.5C58.2715 36.284 58.5035 36.916 58.9675 37.396ZM77.2131 29.5H81.6291L77.5251 41.308C76.8851 43.116 75.9811 44.42 74.8131 45.22C73.6451 46.02 72.1331 46.38 70.2771 46.3V42.556C71.1251 42.556 71.7651 42.452 72.1971 42.244C72.6291 42.036 72.9811 41.66 73.2531 41.116L68.4531 29.5H72.9171L75.3411 36.46L77.2131 29.5ZM96.265 29.5H100.489L96.817 41.5H92.929L91.201 35.404L89.473 41.5H85.585L81.913 29.5H86.137L87.721 36.028L89.521 29.5H92.881L94.681 36.028L96.265 29.5ZM105.525 27.844C105.077 28.292 104.541 28.516 103.917 28.516C103.293 28.516 102.749 28.292 102.285 27.844C101.837 27.38 101.613 26.836 101.613 26.212C101.613 25.588 101.837 25.052 102.285 24.604C102.749 24.156 103.293 23.932 103.917 23.932C104.541 23.932 105.077 24.156 105.525 24.604C105.989 25.052 106.221 25.588 106.221 26.212C106.221 26.836 105.989 27.38 105.525 27.844ZM101.925 41.5V29.5H105.909V41.5H101.925ZM111.952 33.004C111.952 33.228 112.152 33.412 112.552 33.556C112.968 33.7 113.464 33.836 114.04 33.964C114.632 34.092 115.216 34.276 115.792 34.516C116.384 34.74 116.88 35.132 117.28 35.692C117.696 36.252 117.904 36.956 117.904 37.804C117.904 39.18 117.392 40.196 116.368 40.852C115.344 41.508 114.128 41.836 112.72 41.836C110.032 41.836 108.24 40.884 107.344 38.98L110.824 37.228C111.128 38.108 111.752 38.548 112.696 38.548C113.416 38.548 113.776 38.332 113.776 37.9C113.776 37.676 113.576 37.492 113.176 37.348C112.776 37.204 112.288 37.06 111.712 36.916C111.136 36.772 110.56 36.58 109.984 36.34C109.408 36.1 108.92 35.716 108.52 35.188C108.12 34.644 107.92 33.98 107.92 33.196C107.92 31.916 108.392 30.924 109.336 30.22C110.28 29.516 111.416 29.164 112.744 29.164C115.112 29.164 116.76 30.092 117.688 31.948L114.328 33.46C113.976 32.772 113.48 32.428 112.84 32.428C112.248 32.428 111.952 32.62 111.952 33.004ZM122.962 36.964C123.362 37.94 124.258 38.428 125.65 38.428C126.514 38.428 127.242 38.148 127.834 37.588L130.714 39.604C129.53 41.092 127.81 41.836 125.554 41.836C123.522 41.836 121.89 41.244 120.658 40.06C119.442 38.86 118.834 37.348 118.834 35.524C118.834 33.716 119.434 32.204 120.634 30.988C121.834 29.772 123.362 29.164 125.218 29.164C127.01 29.164 128.49 29.764 129.658 30.964C130.826 32.164 131.41 33.668 131.41 35.476C131.41 36.004 131.354 36.5 131.242 36.964H122.962ZM122.914 34.204H127.522C127.202 33.084 126.45 32.524 125.266 32.524C124.034 32.524 123.25 33.084 122.914 34.204Z" fill="white"/>
<path d="M17.5 15.7063C17.2375 15.7875 5.98122 21.3313 5.84997 21.45C5.81247 21.475 6.15622 21.5 6.60622 21.5H7.42497L13.7625 19.775C17.2437 18.825 20.1187 18.025 20.15 18C20.175 17.975 20.0312 17.6 19.8187 17.1688C19.4062 16.3313 19.15 16.025 18.6625 15.8125C18.3062 15.65 17.8375 15.6125 17.5 15.7063Z" fill="url(#paint0_linear_213_114)"/>
<path d="M17.8437 19.775C14.5437 20.675 11.8 21.4312 11.75 21.4563C11.7 21.475 14.9937 21.4937 19.075 21.4937L26.4874 21.5L26.3062 20.825C26.2062 20.4562 26.0624 19.9375 25.9937 19.675C25.7187 18.6562 25.0812 18.1187 24.1562 18.1312C23.9499 18.1312 21.825 18.6812 17.8437 19.775Z" fill="url(#paint1_linear_213_114)"/>
<path d="M1.22496 22.85C1.00621 22.9187 0.818712 23.05 0.556212 23.3062C-0.0562876 23.9187 -0.00628762 22.8687 0.0124624 34.6875L0.0312124 45.0312L0.174962 45.3125C0.381212 45.7063 0.712462 46.0312 1.08746 46.2L1.40621 46.3438H15.0937C27.95 46.3438 28.7937 46.3375 29.0187 46.2375C29.4375 46.05 29.7312 45.7625 29.9312 45.3625L30.125 44.9812V42.275V39.5687L24.5187 39.55L18.9062 39.5312L18.5375 39.3875C17.4937 38.9938 16.8 38.2375 16.5375 37.2125C16.4562 36.8938 16.4375 36.425 16.4375 34.5875C16.4375 33.35 16.4687 32.175 16.5 31.9688C16.6375 31.125 17.2812 30.2375 18.05 29.825C18.7875 29.4312 18.6687 29.4375 24.675 29.4375H30.1312L30.1125 26.7L30.0937 23.9688L29.925 23.6875C29.7187 23.3375 29.4875 23.1125 29.125 22.925L28.8437 22.7812L15.1875 22.7687C3.16246 22.7625 1.49371 22.7687 1.22496 22.85Z" fill="url(#paint2_linear_213_114)"/>
<path d="M19.0313 30.775C18.5063 30.925 18.1313 31.2375 17.8625 31.75C17.7188 32.0313 17.7188 32.0375 17.7188 34.4688C17.7188 36.9 17.7188 36.9063 17.8688 37.2313C18.0375 37.6125 18.3938 37.9563 18.8063 38.15C19.0938 38.2812 19.1 38.2812 24.8438 38.2812C30.5875 38.2812 30.5938 38.2812 30.8813 38.15C31.275 37.9688 31.6313 37.6313 31.8125 37.2688L31.9688 36.9688L31.9875 34.6375C32.0125 31.8375 32.0063 31.8063 31.45 31.2563C30.8375 30.65 31.275 30.6875 24.85 30.6938C20.8438 30.7 19.2125 30.7188 19.0313 30.775ZM22.8188 33.5188C23.1313 33.725 23.25 34.0125 23.25 34.55C23.25 35.3875 22.9688 35.7 22.1938 35.7438C21.6313 35.7688 21.3313 35.6875 21.0938 35.4375C20.9188 35.2563 20.9063 35.2063 20.8875 34.65C20.8563 33.95 20.925 33.7438 21.2438 33.525C21.4375 33.3938 21.5375 33.375 22.0375 33.375C22.525 33.375 22.6375 33.3938 22.8188 33.5188Z" fill="url(#paint3_linear_213_114)"/>
<defs>
<linearGradient id="paint0_linear_213_114" x1="5.84717" y1="18.5099" x2="20.1528" y2="18.5099" gradientUnits="userSpaceOnUse">
<stop stop-color="#E49547"/>
<stop offset="1" stop-color="#FFB977"/>
</linearGradient>
<linearGradient id="paint1_linear_213_114" x1="11.7494" y1="19.7764" x2="26.4874" y2="19.7764" gradientUnits="userSpaceOnUse">
<stop stop-color="#E49547"/>
<stop offset="1" stop-color="#FFB977"/>
</linearGradient>
<linearGradient id="paint2_linear_213_114" x1="0.00292953" y1="34.2813" x2="30.1312" y2="34.2813" gradientUnits="userSpaceOnUse">
<stop stop-color="#E49547"/>
<stop offset="1" stop-color="#FFB977"/>
</linearGradient>
<linearGradient id="paint3_linear_213_114" x1="17.7187" y1="34.3979" x2="31.995" y2="34.3979" gradientUnits="userSpaceOnUse">
<stop stop-color="#E49547"/>
<stop offset="1" stop-color="#FFB977"/>
</linearGradient>
</defs>
</svg>
