<svg width="25" height="24" viewBox="0 0 25 24" fill="none" xmlns="http://www.w3.org/2000/svg">
<path d="M19.94 12.9999C19.72 12.9999 19.49 12.9299 19.27 12.8799C18.8245 12.7817 18.3866 12.6514 17.96 12.4899C17.4961 12.3211 16.9861 12.3299 16.5283 12.5145C16.0704 12.6991 15.6971 13.0465 15.48 13.4899L15.26 13.9399C14.286 13.398 13.391 12.7251 12.6 11.9399C11.8147 11.1489 11.1418 10.2539 10.6 9.27987L11.02 8.99987C11.4633 8.78278 11.8108 8.4094 11.9954 7.95156C12.18 7.49372 12.1888 6.98378 12.02 6.51987C11.8612 6.09229 11.7309 5.65467 11.63 5.20987C11.58 4.98987 11.54 4.75987 11.51 4.52987C11.3885 3.82549 11.0196 3.18761 10.4696 2.73111C9.9196 2.2746 9.22467 2.02948 8.50998 2.03987H5.50998C5.07901 2.03582 4.65223 2.12468 4.25869 2.3004C3.86515 2.47612 3.51409 2.73456 3.22941 3.05815C2.94473 3.38174 2.73311 3.76286 2.60897 4.17558C2.48482 4.5883 2.45106 5.02293 2.50998 5.44987C3.04272 9.63925 4.95601 13.5317 7.94763 16.5125C10.9393 19.4933 14.8387 21.3924 19.03 21.9099H19.41C20.1474 21.9109 20.8594 21.6404 21.41 21.1499C21.7263 20.8669 21.9791 20.52 22.1514 20.1322C22.3238 19.7443 22.4119 19.3243 22.41 18.8999V15.8999C22.3977 15.2053 22.1448 14.5364 21.6943 14.0075C21.2439 13.4786 20.6238 13.1225 19.94 12.9999ZM20.44 18.9999C20.4398 19.1419 20.4094 19.2822 20.3508 19.4115C20.2921 19.5408 20.2066 19.6562 20.1 19.7499C19.9886 19.8469 19.858 19.9193 19.7167 19.9624C19.5754 20.0054 19.4266 20.0182 19.28 19.9999C15.5349 19.5197 12.0562 17.8064 9.39269 15.1302C6.72917 12.454 5.03239 8.96721 4.56998 5.21987C4.55406 5.07339 4.56801 4.9252 4.61098 4.78426C4.65395 4.64332 4.72505 4.51256 4.81998 4.39987C4.91369 4.2932 5.02904 4.20771 5.15836 4.14909C5.28767 4.09046 5.42799 4.06005 5.56998 4.05987H8.56998C8.80253 4.05469 9.0296 4.13075 9.21212 4.27494C9.39464 4.41913 9.52119 4.62244 9.56998 4.84987C9.60998 5.1232 9.65998 5.3932 9.71998 5.65987C9.8355 6.18701 9.98924 6.70505 10.18 7.20987L8.77998 7.85987C8.66028 7.91479 8.5526 7.99281 8.46314 8.08946C8.37367 8.18611 8.30418 8.29948 8.25865 8.42306C8.21312 8.54664 8.19245 8.678 8.19783 8.80959C8.2032 8.94118 8.23452 9.07041 8.28998 9.18987C9.72918 12.2726 12.2072 14.7507 15.29 16.1899C15.5334 16.2899 15.8065 16.2899 16.05 16.1899C16.1747 16.1453 16.2893 16.0763 16.3871 15.9871C16.485 15.8978 16.5641 15.79 16.62 15.6699L17.24 14.2699C17.7569 14.4547 18.2846 14.6084 18.82 14.7299C19.0866 14.7899 19.3566 14.8399 19.63 14.8799C19.8574 14.9287 20.0607 15.0552 20.2049 15.2377C20.3491 15.4202 20.4252 15.6473 20.42 15.8799L20.44 18.9999Z" fill="#E4AD78"/>
</svg>
