<svg width="25" height="24" viewBox="0 0 25 24" fill="none" xmlns="http://www.w3.org/2000/svg">
<path d="M23.5 9.70998C23.5495 8.27864 23.2365 6.858 22.59 5.57998C22.1514 5.05558 21.5427 4.70169 20.87 4.57998C18.0875 4.32751 15.2936 4.22403 12.5 4.26998C9.71667 4.22194 6.93274 4.32208 4.16003 4.56998C3.61185 4.6697 3.10454 4.92683 2.70003 5.30998C1.80003 6.13998 1.70003 7.55998 1.60003 8.75998C1.45494 10.9175 1.45494 13.0824 1.60003 15.24C1.62896 15.9154 1.72952 16.5858 1.90003 17.24C2.0206 17.745 2.26455 18.2123 2.61003 18.6C3.01729 19.0034 3.53641 19.2752 4.10003 19.38C6.25594 19.6461 8.42824 19.7564 10.6 19.71C14.1 19.76 17.17 19.71 20.8 19.43C21.3775 19.3316 21.9112 19.0595 22.33 18.65C22.61 18.3699 22.8191 18.0271 22.94 17.65C23.2977 16.5526 23.4733 15.4041 23.46 14.25C23.5 13.69 23.5 10.31 23.5 9.70998ZM10.24 14.85V8.65998L16.16 11.77C14.5 12.69 12.31 13.73 10.24 14.85Z" fill="#E4AD78"/>
</svg>
