<svg width="25" height="24" viewBox="0 0 25 24" fill="none" xmlns="http://www.w3.org/2000/svg">
<g clip-path="url(#clip0_218_1519)">
<path fill-rule="evenodd" clip-rule="evenodd" d="M12.0651 0C5.43506 0 0.0650635 5.37 0.0650635 12C0.0650635 17.31 3.50006 21.795 8.27006 23.385C8.87006 23.49 9.09506 23.13 9.09506 22.815C9.09506 22.53 9.08006 21.585 9.08006 20.58C6.06506 21.135 5.28506 19.845 5.04506 19.17C4.91006 18.825 4.32506 17.76 3.81506 17.475C3.39506 17.25 2.79506 16.695 3.80006 16.68C4.74506 16.665 5.42006 17.55 5.64506 17.91C6.72506 19.725 8.45006 19.215 9.14006 18.9C9.24506 18.12 9.56006 17.595 9.90506 17.295C7.23506 16.995 4.44506 15.96 4.44506 11.37C4.44506 10.065 4.91006 8.985 5.67506 8.145C5.55506 7.845 5.13506 6.615 5.79506 4.965C5.79506 4.965 6.80006 4.65 9.09506 6.195C10.0551 5.925 11.0751 5.79 12.0951 5.79C13.1151 5.79 14.1351 5.925 15.0951 6.195C17.3901 4.635 18.3951 4.965 18.3951 4.965C19.0551 6.615 18.6351 7.845 18.5151 8.145C19.2801 8.985 19.7451 10.05 19.7451 11.37C19.7451 15.975 16.9401 16.995 14.2701 17.295C14.7051 17.67 15.0801 18.39 15.0801 19.515C15.0801 21.12 15.0651 22.41 15.0651 22.815C15.0651 23.13 15.2901 23.505 15.8901 23.385C18.2722 22.5807 20.3422 21.0497 21.8087 19.0074C23.2752 16.965 24.0643 14.5143 24.0651 12C24.0651 5.37 18.6951 0 12.0651 0Z" fill="#363940"/>
</g>
<defs>
<clipPath id="clip0_218_1519">
<rect width="24" height="24" fill="white" transform="translate(0.0650635)"/>
</clipPath>
</defs>
</svg>
