<svg width="25" height="24" viewBox="0 0 25 24" fill="none" xmlns="http://www.w3.org/2000/svg">
<g clip-path="url(#clip0_218_1524)">
<path d="M24.8046 5.45709V19.3661C24.8046 20.2701 24.0726 21.0021 23.1686 21.0021H19.3496V11.7301L12.8046 16.6401L6.25957 11.7301V21.0031H2.44057C2.22564 21.0031 2.01282 20.9607 1.81426 20.8785C1.61571 20.7962 1.43532 20.6756 1.28339 20.5236C1.13146 20.3715 1.01097 20.1911 0.928812 19.9925C0.846654 19.7939 0.804434 19.581 0.804566 19.3661V5.45709C0.804566 3.43409 3.11357 2.27909 4.73157 3.49309L6.25957 4.64009L12.8046 9.54809L19.3496 4.63809L20.8776 3.49309C22.4946 2.28009 24.8046 3.43409 24.8046 5.45709Z" fill="#363940"/>
</g>
<defs>
<clipPath id="clip0_218_1524">
<rect width="24" height="24" fill="white" transform="translate(0.804565)"/>
</clipPath>
</defs>
</svg>
