<svg width="25" height="24" viewBox="0 0 25 24" fill="none" xmlns="http://www.w3.org/2000/svg">
<g clip-path="url(#clip0_218_1522)">
<path d="M21.3799 20.4532H17.8302V14.883C17.8302 13.5547 17.8024 11.8477 15.9739 11.8477C14.1229 11.8477 13.8409 13.2885 13.8409 14.7847V20.4525H10.2867V8.99925H13.7007V10.5615H13.7464C14.2234 9.65925 15.3837 8.7105 17.1147 8.7105C20.7154 8.7105 21.3837 11.0813 21.3837 14.1638V20.4525L21.3799 20.4532ZM6.27119 7.434C5.99989 7.4341 5.73125 7.38068 5.48063 7.27679C5.23002 7.1729 5.00236 7.02059 4.8107 6.82858C4.61904 6.63658 4.46715 6.40864 4.36371 6.15784C4.26028 5.90704 4.20734 5.63829 4.20794 5.367C4.20838 4.95866 4.32989 4.55963 4.55711 4.22034C4.78432 3.88106 5.10704 3.61677 5.48445 3.46088C5.86186 3.30499 6.27701 3.26451 6.67743 3.34456C7.07784 3.4246 7.44553 3.62158 7.73401 3.91058C8.02248 4.19958 8.21879 4.56763 8.29811 4.96818C8.37743 5.36874 8.33619 5.78383 8.17962 6.16095C8.02305 6.53808 7.75817 6.86031 7.41847 7.08691C7.07878 7.31351 6.67952 7.4343 6.27119 7.434V7.434ZM8.05169 20.4532H4.48994V9H8.05169V20.4532ZM23.1619 0H2.70494C1.72769 0 0.934937 0.77325 0.934937 1.73025V22.2705C0.934937 23.2275 1.72769 24.0007 2.70494 24.0007H23.1582C24.1339 24.0007 24.9349 23.2275 24.9349 22.2705V1.73025C24.9349 0.77325 24.1339 0 23.1582 0H23.1619Z" fill="#363940"/>
</g>
<defs>
<clipPath id="clip0_218_1522">
<rect width="24" height="24" fill="white" transform="translate(0.934937)"/>
</clipPath>
</defs>
</svg>
