<svg width="175" height="124" viewBox="0 0 175 124" fill="none" xmlns="http://www.w3.org/2000/svg">
<path d="M68.4578 38.0035L81.7482 38L81.6655 38.1434L51.4519 85.7914L38.3972 85.8217L68.4578 38.0034V38.0035ZM99.9173 76.3333V66.965L107.799 66.9815L115.681 66.9981L115.997 67.1385C116.677 67.4411 117.212 68.025 117.518 68.7991C117.842 69.6211 117.823 69.0559 117.823 77.8138V85.7017H116.042H114.26V79.0357C114.26 71.8632 114.268 72.1322 114.033 71.6927C113.981 71.5962 113.843 71.4431 113.727 71.3525L113.516 71.1877L112.039 71.1697L110.562 71.1518V78.4268V85.7017H108.826H107.09L107.078 78.9189L107.066 72.136L106.93 71.843C106.845 71.6616 106.709 71.4811 106.573 71.3689L106.352 71.1878L104.916 71.1697L103.481 71.1517V78.4268V85.7018H101.699H99.9174V76.3335L99.9173 76.3333ZM68.9937 85.2243C67.9446 84.8593 67.1479 83.8357 66.8265 82.4398C66.7488 82.1019 66.7439 81.7304 66.7439 76.1554V70.2301L66.8712 69.7519C67.0497 69.0818 67.27 68.6237 67.6549 68.1225C67.8976 67.8064 68.0858 67.6262 68.3574 67.4498C69.1031 66.9654 68.5425 67.0031 75.3022 66.9825L81.3348 66.964V69.031V71.0979H76.0719C70.8209 71.0979 70.8087 71.0982 70.6138 71.2233C70.4782 71.3105 70.3808 71.4339 70.2951 71.6273L70.1717 71.9059V76.275C70.1717 80.59 70.173 80.6472 70.2659 80.8836C70.3177 81.0153 70.4464 81.2038 70.5517 81.3026L70.7433 81.4821L76.039 81.4981L81.3348 81.514V83.4283V85.3426L75.3248 85.3391C69.6072 85.3356 69.2991 85.3303 68.9937 85.224V85.224V85.2243ZM84.9151 85.2243C84.4942 85.0779 84.0333 84.7631 83.7252 84.4117C83.3284 83.9591 83.1309 83.614 82.9098 82.987C82.6411 82.225 82.6443 82.3085 82.6443 76.1853C82.6443 69.8748 82.6313 70.1404 82.9873 69.1834C83.2696 68.4247 83.711 67.831 84.2676 67.4612C85.0202 66.9612 84.4297 66.9981 91.686 66.9981H98.1358L98.1476 69.0473L98.1595 71.0966L92.3937 71.1123L86.6278 71.1279L86.4644 71.2765C86.3745 71.3581 86.2542 71.5332 86.1971 71.6655L86.0932 71.9059V76.2751C86.0932 80.59 86.0945 80.6472 86.1874 80.8836C86.2392 81.0153 86.3678 81.2038 86.4732 81.3026L86.6647 81.4822L92.4115 81.498L98.1583 81.5139V83.4282V85.3426L91.6973 85.3391C85.5394 85.3356 85.2212 85.3303 84.9151 85.224V85.224L84.9151 85.2243ZM121.883 85.2495C121.448 85.1256 120.912 84.7494 120.56 84.3209C120.102 83.7646 119.812 83.1403 119.643 82.349C119.565 81.9845 119.56 81.6103 119.56 76.1853C119.56 69.7324 119.541 70.1333 119.883 69.1846C120.111 68.5532 120.724 67.7419 121.206 67.4326C121.93 66.9688 121.326 67.0056 128.569 66.9836L135.053 66.9639V69.0309V71.0979H129.345C123.834 71.0979 123.632 71.1014 123.471 71.2112C123.264 71.3512 123.169 71.4872 123.08 71.7715C123.019 71.9629 123.01 72.5589 123.01 76.305C123.01 79.7922 123.022 80.6552 123.071 80.8117C123.152 81.0675 123.417 81.3705 123.629 81.4486C123.744 81.4909 125.639 81.5115 129.426 81.5117L135.053 81.512V83.4273V85.3425L128.614 85.3382C123.284 85.3338 122.125 85.319 121.883 85.2499V85.2498L121.883 85.2495ZM136.632 83.0832L136.632 80.8836L136.742 80.5702C136.954 79.9658 137.125 79.794 139.378 77.921C140.546 76.9499 141.502 76.1419 141.502 76.1255C141.502 76.0963 138.692 73.6954 137.694 72.8711C137.099 72.38 136.937 72.1874 136.789 71.7917L136.677 71.4934V69.2308V66.9682H138.413H140.149L140.151 68.3597L140.153 69.7513L142.596 71.7841C143.939 72.9021 145.07 73.8169 145.109 73.8169C145.147 73.8169 146.289 72.8886 147.646 71.7541L150.114 69.6914L150.116 68.3298L150.118 66.9682H151.854H153.591V69.1206C153.591 71.1772 153.586 71.2884 153.494 71.6194C153.325 72.2199 153.075 72.4739 150.794 74.3593C149.666 75.2924 148.744 76.0782 148.746 76.1056C148.75 76.1524 152.099 79.0327 152.734 79.5348C153.091 79.8176 153.33 80.137 153.452 80.4946C153.539 80.7499 153.544 80.8816 153.545 83.0233L153.545 85.2827L152.654 85.2825C152.165 85.2824 151.383 85.2648 150.918 85.2431L150.072 85.2039V83.8446V82.4854L147.62 80.4426C146.272 79.319 145.142 78.3998 145.11 78.3998C145.079 78.3998 143.939 79.3357 142.579 80.4796L140.105 82.5595L140.105 83.9211L140.104 85.2827H138.368H136.631L136.632 83.0831L136.632 83.0832ZM89.3632 76.305V74.4496H93.7607H98.1583V76.305V78.1604H93.7607H89.3632V76.305ZM126.258 76.305V74.4496H130.655H135.053V76.305V78.1604H130.655H126.258V76.305Z" fill="#293064"/>
<path d="M21.0063 85.7808L51.0074 38.0642H64.3139L64.1992 38.2288L33.9736 85.8855H27.4562C21.2535 85.8855 20.942 85.8803 21.0063 85.7808Z" fill="#DF343D"/>
</svg>
