<svg width="175" height="124" viewBox="0 0 175 124" fill="none" xmlns="http://www.w3.org/2000/svg">
<path d="M90.1464 64.5433L83.507 47.9008L76.906 64.4327C78.6234 64.3789 80.3607 64.3477 82.1365 64.3477C84.8775 64.3477 87.5446 64.4143 90.1464 64.5433ZM145.249 81.4168C131.021 75.2485 115.019 70.6804 96.2171 69.1383L101.942 83H97.5108L91.8595 68.8393C88.7019 68.6649 85.4633 68.5671 82.1436 68.5671C79.7892 68.5671 77.4775 68.6153 75.2028 68.7074L69.4975 83H65.0631L70.868 68.9371C50.9242 70.241 33.9391 74.9523 19.0196 81.4126V80.5395C28.9773 74.9991 38.8241 70.8632 49.4542 68.1618V59.6534L37.482 41.3313H41.9305L51.4304 56.5551L60.9345 41.3313H65.3773L53.408 59.6534L53.4051 67.2292C59.4886 65.9124 65.8479 65.0422 72.648 64.6297L82.5146 40.7247H84.4922L94.4371 64.8197C101.112 65.3512 107.369 66.3306 113.367 67.7635V44.519H103.586V41.3313H127.195V44.519H117.418V68.8109C127.062 71.4968 136.112 75.403 145.249 80.548V81.4168ZM161.067 41.3313H137.461V44.519H147.241V73.2486H151.288V44.519H161.067V41.3313ZM25.551 73.2486L21.5034 73.2529V57.5033H4.04761V73.2486H0V41.3313H4.04761V54.3185H21.5034V41.3313H25.551V73.2486Z" fill="#4B77A9"/>
<path d="M171.746 43.8167C171.552 43.7033 171.24 43.6481 170.81 43.6481H170.15V45.2454H170.849C171.18 45.2454 171.422 45.21 171.588 45.1462C171.888 45.0201 172.044 44.7933 172.044 44.4588C172.044 44.1399 171.942 43.9273 171.746 43.8167ZM170.913 43.1265C171.454 43.1265 171.855 43.1789 172.112 43.281C172.566 43.4709 172.792 43.8451 172.792 44.395C172.792 44.7848 172.65 45.0753 172.366 45.2624C172.212 45.3602 172.004 45.4268 171.727 45.4708C172.078 45.5246 172.326 45.6678 172.488 45.9002C172.641 46.1327 172.722 46.3609 172.722 46.5834V46.9023C172.722 47.0058 172.727 47.1149 172.734 47.2269C172.741 47.3431 172.752 47.4182 172.772 47.4593L172.799 47.5132H172.078C172.074 47.4976 172.07 47.4848 172.066 47.4707C172.061 47.4551 172.061 47.4352 172.057 47.4182L172.039 47.2765V46.9278C172.039 46.4232 171.895 46.0887 171.622 45.9257C171.454 45.8336 171.173 45.784 170.759 45.784H170.15V47.5132H169.371V43.1265H170.913ZM168.555 42.8997C167.883 43.5729 167.55 44.3865 167.55 45.3361C167.55 46.2928 167.881 47.1092 168.55 47.7839C169.219 48.4614 170.031 48.7959 170.988 48.7959C171.943 48.7959 172.756 48.4614 173.43 47.7839C174.097 47.1092 174.433 46.2928 174.433 45.3361C174.433 44.3865 174.097 43.5729 173.43 42.8997C172.752 42.2293 171.939 41.892 170.988 41.892C170.037 41.892 169.229 42.2293 168.555 42.8997V42.8997ZM173.823 48.1637C173.044 48.9504 172.1 49.3416 170.988 49.3416C169.878 49.3416 168.934 48.9504 168.152 48.1637C167.378 47.3799 166.991 46.4388 166.991 45.3319C166.991 44.2334 167.382 43.2923 168.166 42.5128C168.945 41.7346 169.886 41.3449 170.988 41.3449C172.1 41.3449 173.044 41.7346 173.823 42.5128C174.609 43.2852 175 44.2292 175 45.3319C175 46.4346 174.609 47.3785 173.823 48.1637Z" fill="#4B77A9"/>
</svg>
