<svg width="175" height="124" viewBox="0 0 175 124" fill="none" xmlns="http://www.w3.org/2000/svg">
<path d="M24.063 82.2875C21.4305 82.7502 18.7517 82.889 15.9805 83.2585L7.52825 58.4797V84.3219C4.89573 84.5992 2.49409 84.969 0 85.3389V38H7.02051L16.6271 64.8597V38H24.063V82.2875ZM38.6118 55.336C41.4755 55.336 45.8632 55.1973 48.4957 55.1973V62.5938C45.2163 62.5938 41.3831 62.5938 38.6118 62.7326V73.7353C42.9534 73.4581 47.2949 73.0879 51.6824 72.9492V80.0681L31.2218 81.6864V38H51.6824V45.3967H38.6118V55.336V55.336ZM79.1632 45.3969H71.4964V79.4216C69.0023 79.4216 66.5082 79.4216 64.1069 79.5138V45.3969H56.4401V38H79.1636L79.1632 45.3969V45.3969ZM91.1716 54.8276H101.287V62.2242H91.1716V79.0056H83.9198V38H104.566V45.3967H91.1716V54.8276V54.8276ZM116.574 72.5333C120.777 72.6255 125.026 72.9497 129.137 73.1804V80.4848C122.532 80.0684 115.928 79.6529 109.184 79.5138V38H116.574V72.5333ZM135.372 80.9933C137.727 81.1322 140.221 81.2709 142.623 81.5479V38H135.372V80.9933V80.9933ZM175 38L165.624 60.5138L175 85.3389C172.229 84.969 169.457 84.4605 166.686 83.9981L161.375 70.3145L155.972 82.889C153.292 82.4263 150.706 82.2875 148.028 81.9177L157.542 60.2361L148.951 38H156.895L161.744 50.4357L166.917 38H175V38Z" fill="#D81F26"/>
</svg>
