<svg width="175" height="124" viewBox="0 0 175 124" fill="none" xmlns="http://www.w3.org/2000/svg">
<path fill-rule="evenodd" clip-rule="evenodd" d="M20.7251 47.1493L28.6332 46.3403V57.4268C30.0902 55.5298 32.1715 53.8015 35.3767 53.8015C40.1631 53.8015 43.0355 57.0049 43.0355 62.1898V77.0547H35.1686V64.761C35.1686 62.2318 33.8781 60.883 31.9634 60.883C30.0487 60.883 28.6332 62.2318 28.6332 64.761V77.0547H20.7251V47.1493" fill="black"/>
<path fill-rule="evenodd" clip-rule="evenodd" d="M59.7364 65.8149V65.7302C59.7364 62.9062 57.6971 60.5458 54.9081 60.5458C52.036 60.5458 50.2048 62.8638 50.2048 65.6461V65.7304C50.2048 68.5127 52.2026 70.8732 54.9912 70.8732C57.8637 70.8732 59.7364 68.5548 59.7364 65.8149V65.8149ZM42.5459 65.8149V65.7302C42.5459 59.2389 47.7904 53.8013 54.9912 53.8013C62.1928 53.8013 67.3957 59.1548 67.3957 65.6461V65.7304C67.3957 72.2221 62.1508 77.6597 54.9081 77.6597C47.7489 77.6597 42.5459 72.3062 42.5459 65.8149Z" fill="black"/>
<path fill-rule="evenodd" clip-rule="evenodd" d="M88.3944 66.0831L84.6553 54.4045H78.1618L74.6651 65.7102L71.7099 54.4045H64.0095L70.8776 77.0547H77.6206L81.367 65.2803L85.0283 77.0547L88.3944 66.0831Z" fill="black"/>
<path fill-rule="evenodd" clip-rule="evenodd" d="M122.623 54.4045H115.88L112.133 66.219L108.464 54.4045L105.165 65.1549L108.845 77.0547H115.338L118.835 65.7494L121.79 77.0547H129.491L122.623 54.4045Z" fill="black"/>
<path fill-rule="evenodd" clip-rule="evenodd" d="M1 74.197L3.95555 69.3907C6.53647 71.1194 9.32586 72.0044 11.6568 72.0044C13.0303 72.0044 13.6965 71.5833 13.6965 70.7821V70.6978C13.6965 69.7699 12.406 69.3905 10.0332 68.7163C5.57911 67.536 2.04082 66.0185 2.04082 61.4654V61.3807C2.04082 56.5328 5.87066 53.835 11.074 53.835C14.3627 53.835 17.776 54.8045 20.3569 56.4907L17.6513 61.5493C15.32 60.2004 12.7807 59.3996 10.9906 59.3996C9.78359 59.3996 9.1593 59.8631 9.1593 60.5377V60.6225C9.1593 61.5079 10.4913 61.9289 12.8226 62.6456C17.2767 63.9104 20.815 65.4704 20.815 69.8965V69.9812C20.815 74.9979 17.1102 77.6115 11.6152 77.6115C7.82691 77.6115 4.08057 76.4733 1 74.197" fill="black"/>
<path fill-rule="evenodd" clip-rule="evenodd" d="M150.065 72.2376V59.424L156.001 65.8349L150.065 72.2376ZM143.674 65.7415C143.674 68.7766 141.462 70.9267 138.881 70.9267C136.342 70.9267 134.089 68.7766 134.089 65.7415V65.6572C134.089 62.6216 136.342 60.4719 138.881 60.4719C141.462 60.4719 143.674 62.6637 143.674 65.6572V65.7415ZM174.918 54.4046H164.8L160.62 59.6344L156.441 54.4046H143.275V57.0992C141.677 55.3709 139.842 53.8113 136.428 53.8113C131.099 53.8113 126.5 58.3219 126.5 65.7415V65.8257C126.5 73.1187 131.099 77.6297 136.469 77.6297C139.842 77.6297 141.677 75.9855 143.275 74.0886V77.055H156.545L160.62 71.9571L164.695 77.055H174.813L165.679 65.797L174.918 54.4046Z" fill="black"/>
<path opacity="0.75" fill-rule="evenodd" clip-rule="evenodd" d="M92.6417 77.0547H85.0283L91.9771 54.4045H99.5904L92.6417 77.0547Z" fill="url(#paint0_linear_250_1606)"/>
<path opacity="0.75" fill-rule="evenodd" clip-rule="evenodd" d="M100.85 54.4045H108.464L101.514 77.0547H93.9011L100.85 54.4045Z" fill="url(#paint1_linear_250_1606)"/>
<defs>
<linearGradient id="paint0_linear_250_1606" x1="3414.22" y1="1774.46" x2="3414.22" y2="506.049" gradientUnits="userSpaceOnUse">
<stop stop-color="#C44A88"/>
<stop offset="1" stop-color="#E43F8C"/>
</linearGradient>
<linearGradient id="paint1_linear_250_1606" x1="3746.61" y1="506.049" x2="3746.61" y2="1774.46" gradientUnits="userSpaceOnUse">
<stop stop-color="#658D9D"/>
<stop offset="1" stop-color="#377B8B"/>
</linearGradient>
</defs>
</svg>
